<svg xmlns="http://www.w3.org/2000/svg" style="display: none;">
  
    <symbol id="icon-dd-calculator" viewBox="0 0 512 512">
      <path d="m85 438c-3-1-6-2-7-4-7-5-6 2-6-187l0-177 108 0 0 58 152 0 0-58 108 0 0 177c0 171 0 177-2 182-1 2-4 6-7 7l-3 3-170 0c-93 0-171-1-173-1z m337-183l0-167-73 0 0 57-186 0 0-57-75 0 0 166c0 91 1 166 1 166 1 1 76 1 167 1l166 0z m-274 139c-3-1-5-6-5-14l0-9 37 0 0 9c0 7 0 10-2 12-3 3-3 4-16 4-7 0-14-1-14-2z m61-1c-2-2-3-4-3-12l0-10 36 0 0 10c0 13-1 15-18 15-11 0-13-1-15-3z m62 0c-2-3-4-9-3-16l0-5 18-1 19 0 0 10c0 13-2 15-18 15-11 0-13-1-16-3z m63-1c-2-3-2-5-2-60l0-57 37 0 0 57c0 69 1 64-19 64-13 0-13-1-16-4z m-191-50l0-13 19 0 18 1 0 12 1 13-38 0z m63 0l1-12 17-1 18 0 0 26-36 0z m62 11c0-1 0-7 0-13l0-10 36 0 0 12 1 13-18 0c-14 0-18-1-19-2z m-125-59l0-19 37 0 0 37-37 0z m63 9l1-9 17-1 18 0 0 19-36 0z m62 0l0-9 36 0 0 9 1 9-38 0z m-131-56c-3-1-6-4-7-7-3-5-3-6-3-37l0-33 129 1 129 0 0 31c0 30 0 32-2 37-2 4-5 6-8 8-5 2-8 3-119 3-105-1-115-1-119-3z m230-37l0-22-222 0 0 44 222 0z"/>
    </symbol>
  
</svg>
